<svg width="22" height="22" viewBox="0 0 22 22" fill="none" xmlns="http://www.w3.org/2000/svg">
<g clip-path="url(#clip0_2502_28)">
<circle cx="11" cy="11" r="14" fill="#DDEEEE"/>
<path d="M11.0001 5.49999C12.297 5.49999 13.5422 5.96529 14.5256 6.78699L11.9714 9.34119L18.8035 9.93409L18.2106 3.10199L16.0876 5.22499C14.6884 3.99519 12.8811 3.29999 11.0001 3.29999C7.22376 3.29999 4.03046 5.99939 3.40676 9.71739L5.57706 10.0815C6.02146 7.42719 8.30286 5.49999 11.0001 5.49999Z" fill="#323743"/>
<path d="M11.0001 16.5C9.70316 16.5 8.45796 16.0347 7.47456 15.213L10.0288 12.6588L3.19666 12.0659L3.78956 18.898L5.91256 16.775C7.31176 18.0048 9.11906 18.7 11.0001 18.7C14.7764 18.7 17.9697 16.0006 18.5934 12.2826L16.4231 11.9185C15.9787 14.5728 13.6973 16.5 11.0001 16.5Z" fill="#323743"/>
</g>
<defs>
<clipPath id="clip0_2502_28">
<rect width="22" height="22" fill="white"/>
</clipPath>
</defs>
</svg>
