<svg width="27" height="30" viewBox="0 0 27 30" fill="none" xmlns="http://www.w3.org/2000/svg">
<path d="M10.7635 27.294C11.1176 27.6626 11.5425 27.9559 12.0127 28.1562C12.483 28.3566 12.9888 28.4598 13.4999 28.4598C14.0111 28.4598 14.5169 28.3566 14.9872 28.1562C15.4574 27.9559 15.8823 27.6626 16.2364 27.294M22.6216 13.8652V10.1253C22.5493 7.7375 21.5623 5.46874 19.8646 3.78804C18.1669 2.10733 15.8884 1.14319 13.4999 1.09492C11.1025 1.16379 8.8222 2.14692 7.12627 3.84286C5.43033 5.53879 4.4472 7.81911 4.37833 10.2165V13.8652C4.37833 17.9699 1.09455 18.6996 1.09455 20.98C1.09455 23.078 5.92901 24.7199 13.4999 24.7199C21.0709 24.7199 25.9053 23.078 25.9053 20.98C25.9053 18.6996 22.6216 17.9699 22.6216 13.8652Z" stroke="#0DB1AD" stroke-width="2.16" stroke-miterlimit="10" stroke-linecap="square"/>
</svg>
