<svg width="17" height="17" viewBox="0 0 17 17" fill="none" xmlns="http://www.w3.org/2000/svg">
<path d="M5.25387 11.1234V16.3704H14.1736V12.1728M14.1736 12.1728C15.3327 12.1728 16.2724 11.2332 16.2724 10.0741C16.2724 8.91494 15.3327 7.97529 14.1736 7.97529C13.0145 7.97529 12.0749 8.91494 12.0749 10.0741C12.0749 11.2332 13.0145 12.1728 14.1736 12.1728ZM7.87733 1.1543H9.87116C10.186 1.1543 10.4483 1.41664 10.3958 1.78393L9.03165 10.2839C8.92671 10.8086 8.50696 11.1759 7.98227 11.1759H2.99769C2.473 11.1759 2.05325 10.8086 1.94831 10.2839L0.63658 1.78393C0.584111 1.41664 0.846457 1.1543 1.16127 1.1543H3.1551M3.1551 0.629605V2.20368M7.87733 0.629605V2.20368" stroke="white" stroke-width="1.2" stroke-miterlimit="10" stroke-linecap="square"/>
</svg>
