<svg width="26" height="26" viewBox="0 0 26 26" fill="none" xmlns="http://www.w3.org/2000/svg">
<path d="M12.8928 16.2099C14.6656 16.2099 16.1027 14.7728 16.1027 13C16.1027 11.2272 14.6656 9.79011 12.8928 9.79011C11.12 9.79011 9.68291 11.2272 9.68291 13C9.68291 14.7728 11.12 16.2099 12.8928 16.2099Z" stroke="#565D6D" stroke-width="1.92" stroke-miterlimit="10" stroke-linecap="square"/>
<path d="M21.72 13C21.7197 12.4139 21.6614 11.8292 21.5458 11.2546L24.5206 9.06789L22.1132 4.89504L18.7212 6.38282C17.8432 5.60688 16.819 5.01428 15.7087 4.63985L15.3002 0.962927H10.4854L10.0769 4.63985C8.96665 5.01428 7.94242 5.60688 7.06445 6.38282L3.6724 4.89504L1.26499 9.06789L4.23975 11.2562C4.00758 12.4082 4.00758 13.595 4.23975 14.747L1.26499 16.9321L3.6724 21.105L7.06445 19.6188C7.94242 20.3947 8.96665 20.9873 10.0769 21.3618L10.4854 25.0371H15.3002L15.7087 21.3601C16.819 20.9857 17.8432 20.3931 18.7212 19.6172L22.1132 21.105L24.5206 16.9321L21.5458 14.7438C21.6613 14.1697 21.7196 13.5856 21.72 13Z" stroke="#565D6D" stroke-width="1.92" stroke-miterlimit="10" stroke-linecap="square"/>
</svg>
