<svg width="26" height="25" viewBox="0 0 26 25" fill="none" xmlns="http://www.w3.org/2000/svg">
<path d="M12.8101 1.2499L13.4198 0.487748L12.8101 -3.03e-05L12.2004 0.487748L12.8101 1.2499ZM10.37 17.5171V16.5411H9.39401V17.5171H10.37ZM15.2502 17.5171H16.2262V16.5411H15.2502V17.5171ZM4.83919 12.6369V11.6609H2.88712V12.6369H4.83919ZM22.7331 12.6369V11.6609H20.781V12.6369H22.7331ZM1.21944 11.7724L13.4198 2.01205L12.2004 0.487748L-6.48421e-06 10.2481L1.21944 11.7724ZM12.2004 2.01205L24.4008 11.7724L25.6202 10.2481L13.4198 0.487748L12.2004 2.01205ZM11.3461 24.024V17.5171H9.39401V24.024H11.3461ZM10.37 18.4931H15.2502V16.5411H10.37V18.4931ZM14.2742 17.5171V24.024H16.2262V17.5171H14.2742ZM2.88712 12.6369V21.5839H4.83919V12.6369H2.88712ZM2.88712 21.5839C2.88712 23.4707 4.41645 25 6.30324 25V23.0479C5.49455 23.0479 4.83919 22.3926 4.83919 21.5839H2.88712ZM6.30324 25H19.317V23.0479H6.30324V25ZM19.317 25C21.2038 25 22.7331 23.4707 22.7331 21.5839H20.781C20.781 22.3926 20.1257 23.0479 19.317 23.0479V25ZM22.7331 21.5839V12.6369H20.781V21.5839H22.7331Z" fill="#6CBCBF"/>
</svg>
