<svg width="22" height="22" viewBox="0 0 22 22" fill="none" xmlns="http://www.w3.org/2000/svg">
<path d="M19.25 13.0625V17.875C19.25 18.2397 19.1051 18.5894 18.8473 18.8473C18.5894 19.1051 18.2397 19.25 17.875 19.25L4.125 19.25C3.76033 19.25 3.41059 19.1051 3.15273 18.8473C2.89487 18.5894 2.75 18.2397 2.75 17.875L2.75 13.0625C2.75 12.8802 2.82243 12.7053 2.95136 12.5764C3.0803 12.4474 3.25516 12.375 3.4375 12.375C3.61984 12.375 3.7947 12.4474 3.92364 12.5764C4.05257 12.7053 4.125 12.8802 4.125 13.0625L4.125 17.875L17.875 17.875L17.875 13.0625C17.875 12.8802 17.9474 12.7053 18.0764 12.5764C18.2053 12.4474 18.3802 12.375 18.5625 12.375C18.7448 12.375 18.9197 12.4474 19.0486 12.5764C19.1776 12.7053 19.25 12.8802 19.25 13.0625ZM10.5136 13.5489C10.5774 13.6128 10.6533 13.6635 10.7367 13.6981C10.8202 13.7327 10.9097 13.7505 11 13.7505C11.0903 13.7505 11.1798 13.7327 11.2633 13.6981C11.3467 13.6635 11.4226 13.6128 11.4864 13.5489L14.9239 10.1114C14.9878 10.0475 15.0385 9.9717 15.073 9.88824C15.1076 9.80478 15.1254 9.71533 15.1254 9.625C15.1254 9.53467 15.1076 9.44522 15.073 9.36176C15.0385 9.2783 14.9878 9.20247 14.9239 9.13859C14.86 9.07472 14.7842 9.02405 14.7007 8.98948C14.6173 8.95491 14.5278 8.93712 14.4375 8.93712C14.3472 8.93712 14.2577 8.95491 14.1743 8.98948C14.0908 9.02405 14.015 9.07472 13.9511 9.13859L11.6875 11.403L11.6875 3.4375C11.6875 3.25516 11.6151 3.0803 11.4861 2.95136C11.3572 2.82243 11.1823 2.75 11 2.75C10.8177 2.75 10.6428 2.82243 10.5139 2.95136C10.3849 3.0803 10.3125 3.25516 10.3125 3.4375L10.3125 11.403L8.04891 9.13859C7.9199 9.00959 7.74494 8.93712 7.5625 8.93712C7.38006 8.93712 7.2051 9.00959 7.07609 9.13859C6.94709 9.2676 6.87462 9.44256 6.87462 9.625C6.87462 9.80744 6.94709 9.9824 7.07609 10.1114L10.5136 13.5489Z" fill="white"/>
</svg>
