<svg width="23" height="23" viewBox="0 0 23 23" fill="none" xmlns="http://www.w3.org/2000/svg">
<path d="M1.23215 20.5358H1.2485e-05V23.0001H1.23215V20.5358ZM21.7677 23.0001H22.9999V20.5358H21.7677V23.0001ZM8.4196 16.634L8.66124 17.8422L9.02706 17.7691L9.29085 17.5053L8.4196 16.634ZM3.28571 17.6608L2.0775 17.4192L1.71504 19.2315L3.52735 18.869L3.28571 17.6608ZM4.31248 12.5269L3.44123 11.6557L3.17744 11.9195L3.10428 12.2853L4.31248 12.5269ZM15.3062 1.53319L14.435 0.661937L15.3062 1.53319ZM16.7581 1.53319L15.8857 2.40332L15.8868 2.40444L16.7581 1.53319ZM19.4133 4.18844L20.2846 3.31719L19.4133 4.18844ZM19.4133 5.6403L18.5432 4.76794L18.5421 4.76905L19.4133 5.6403ZM1.23215 23.0001H21.7677V20.5358H1.23215V23.0001ZM8.17796 15.4258L3.04406 16.4526L3.52735 18.869L8.66124 17.8422L8.17796 15.4258ZM4.49391 17.9024L5.52069 12.7686L3.10428 12.2853L2.0775 17.4192L4.49391 17.9024ZM5.18374 13.3982L16.1775 2.40444L14.435 0.661937L3.44123 11.6557L5.18374 13.3982ZM16.1775 2.40444C16.0984 2.48353 15.9673 2.48514 15.8857 2.40332L17.6304 0.663053C16.7479 -0.221702 15.317 -0.220095 14.435 0.661937L16.1775 2.40444ZM15.8868 2.40444L18.5421 5.05969L20.2846 3.31719L17.6293 0.661937L15.8868 2.40444ZM18.5421 5.05969C18.463 4.9806 18.4614 4.84954 18.5432 4.76794L20.2835 6.51267C21.1682 5.63018 21.1666 4.19922 20.2846 3.31719L18.5421 5.05969ZM18.5421 4.76905L7.54835 15.7628L9.29085 17.5053L20.2846 6.51155L18.5421 4.76905ZM11.6555 5.18393L15.7626 9.29105L17.5051 7.54854L13.398 3.44143L11.6555 5.18393Z" fill="#0DB1B1"/>
</svg>
