<svg width="20" height="18" viewBox="0 0 20 18" fill="none" xmlns="http://www.w3.org/2000/svg">
<path d="M17.17 8.77018L9.73546 16.4958L2.30096 8.77018C1.84629 8.29147 1.50059 7.72004 1.2876 7.09511C1.07461 6.47019 0.999372 5.80658 1.06705 5.14984C1.13472 4.49309 1.34371 3.85877 1.67967 3.29042C2.01562 2.72206 2.47058 2.23313 3.01332 1.8572C3.55606 1.48127 4.17373 1.22723 4.82391 1.11253C5.47409 0.997829 6.14139 1.02518 6.78001 1.19271C7.41862 1.36023 8.01342 1.66397 8.52357 2.08306C9.03373 2.50215 9.44715 3.02667 9.73546 3.62061C10.0238 3.02667 10.4372 2.50215 10.9474 2.08306C11.4575 1.66397 12.0523 1.36023 12.6909 1.19271C13.3295 1.02518 13.9968 0.997829 14.647 1.11253C15.2972 1.22723 15.9149 1.48127 16.4576 1.8572C17.0003 2.23313 17.4553 2.72206 17.7913 3.29042C18.1272 3.85877 18.3362 4.49309 18.4039 5.14984C18.4716 5.80658 18.3963 6.47019 18.1833 7.09511C17.9703 7.72004 17.6246 8.29147 17.17 8.77018Z" stroke="#171A1F" stroke-width="2.05714" stroke-miterlimit="10" stroke-linecap="square"/>
</svg>
