<svg width="18" height="21" viewBox="0 0 18 21" fill="none" xmlns="http://www.w3.org/2000/svg">
<path d="M17.3779 16.1712C16.3404 14.4568 15.7799 12.4963 15.7543 10.4926V7.00204C15.7543 5.14498 15.0165 3.36399 13.7034 2.05085C12.3903 0.737713 10.6093 0 8.75222 0C6.89516 0 5.11417 0.737713 3.80103 2.05085C2.48789 3.36399 1.75018 5.14498 1.75018 7.00204V10.4873C1.72542 12.4928 1.16486 14.4552 0.126579 16.1712C0.0462045 16.3039 0.00255728 16.4556 0.000108991 16.6108C-0.0023393 16.7659 0.0364993 16.9189 0.112646 17.0541C0.188792 17.1893 0.29951 17.3018 0.433455 17.3802C0.567401 17.4585 0.719759 17.4998 0.874922 17.4999H16.6295C16.7847 17.4998 16.937 17.4585 17.071 17.3802C17.2049 17.3018 17.3156 17.1893 17.3918 17.0541C17.4679 16.9189 17.5068 16.7659 17.5043 16.6108C17.5019 16.4556 17.4582 16.3039 17.3779 16.1712Z" fill="#DE3B40"/>
<path d="M9.6336 20.8477C10.0004 20.717 10.3336 20.5063 10.609 20.231C10.8843 19.9556 11.095 19.6224 11.2257 19.2556H6.27875C6.39449 19.5804 6.57307 19.8793 6.80431 20.1351C7.03555 20.3909 7.31491 20.5987 7.62643 20.7465C7.93796 20.8943 8.27556 20.9794 8.61995 20.9967C8.96434 21.0141 9.30878 20.9635 9.6336 20.8477Z" fill="#DE3B40"/>
</svg>
