<svg width="16" height="16" viewBox="0 0 16 16" fill="none" xmlns="http://www.w3.org/2000/svg">
<path d="M16 7.99874C15.9998 6.46996 15.5615 4.97325 14.737 3.68581C13.9126 2.39837 12.7365 1.37412 11.3481 0.734308C9.95962 0.0944948 8.4169 -0.134083 6.90257 0.0756348C5.38823 0.285353 3.9657 0.924583 2.80337 1.91765C1.64104 2.91072 0.787596 4.21604 0.344069 5.67907C-0.099457 7.14211 -0.114491 8.7016 0.300748 10.1729C0.715987 11.6442 1.54411 12.9658 2.68708 13.981C3.83004 14.9963 5.23999 15.6629 6.75 15.9017V10.3112H4.719V7.99874H6.75V6.23625C6.75 4.23125 7.9445 3.12374 9.7715 3.12374C10.3715 3.13207 10.9701 3.18421 11.5625 3.27974V5.24874H10.5535C10.3816 5.22591 10.2067 5.24206 10.0418 5.29599C9.87698 5.34993 9.72638 5.44027 9.60119 5.56032C9.476 5.68038 9.37943 5.82706 9.31864 5.98951C9.25784 6.15195 9.23439 6.326 9.25 6.49874V7.99874H11.469L11.114 10.3112H9.25V15.9017C11.1319 15.604 12.8458 14.6445 14.0832 13.1957C15.3206 11.7469 16.0003 9.90404 16 7.99874Z" fill="white"/>
</svg>
