<svg width="17" height="17" viewBox="0 0 17 17" fill="none" xmlns="http://www.w3.org/2000/svg">
<path d="M9.02468 9.77499C9.64644 9.63857 10.3495 9.54937 11.1234 9.54937C12.8555 9.54937 14.2328 9.99745 15.141 10.4156C15.8892 10.7598 16.3704 11.5028 16.3704 12.3266V16.3704H11.1234M7.97529 3.77776C7.97529 2.03893 9.38461 0.629605 11.1234 0.629605C12.8623 0.629605 14.2716 2.03893 14.2716 3.77776C14.2716 5.51659 12.8623 7.4506 11.1234 7.4506C9.38461 7.4506 7.97529 5.51659 7.97529 3.77776ZM2.20368 8.49998C2.20368 7.05131 3.37847 5.87652 4.82714 5.87652C6.27581 5.87652 7.4506 7.05131 7.4506 8.49998C7.4506 9.94866 6.27581 11.6481 4.82714 11.6481C3.37847 11.6481 2.20368 9.94866 2.20368 8.49998ZM9.02468 15.2822C9.02468 14.6221 8.61437 14.035 7.99575 13.8046C7.24335 13.5244 6.12995 13.2222 4.82714 13.2222C3.52433 13.2222 2.41093 13.5244 1.65853 13.8046C1.03991 14.035 0.629605 14.6221 0.629605 15.2822V16.3704H9.02468V15.2822Z" stroke="white" stroke-width="1.2" stroke-miterlimit="10"/>
</svg>
