<svg width="26" height="30" viewBox="0 0 26 30" fill="none" xmlns="http://www.w3.org/2000/svg">
<path d="M1.09855 4.76053V24.9014C1.09855 27.0071 6.68307 28.5634 13 28.5634C19.3169 28.5634 24.9014 27.0071 24.9014 24.9014V4.76053M1.09855 4.76053C1.09855 6.86617 6.68307 8.42251 13 8.42251C19.3169 8.42251 24.9014 6.86617 24.9014 4.76053M1.09855 4.76053C1.09855 2.65489 6.68307 1.09855 13 1.09855C19.3169 1.09855 24.9014 2.65489 24.9014 4.76053M24.9014 14.831C24.9014 16.9366 19.3169 18.493 13 18.493C6.68307 18.493 1.09855 16.9366 1.09855 14.831" stroke="#0DB1AD" stroke-width="2.16" stroke-miterlimit="10" stroke-linecap="square"/>
</svg>
