<svg width="30" height="30" viewBox="0 0 30 30" fill="none" xmlns="http://www.w3.org/2000/svg">
<path d="M11.5593 17.8267L7.04078 20.6647C6.23153 21.173 5.74079 22.0609 5.74079 23.0165V25.3517M18.4407 17.8267L22.9592 20.6647C23.7685 21.173 24.2592 22.0609 24.2592 23.0165V25.3517M9.44447 12.2221C9.44447 9.15361 11.9315 6.66659 15 6.66659C18.0685 6.66659 20.5555 9.15361 20.5555 12.2221C20.5555 15.2906 18.3176 19.6295 15 19.6295C11.7204 19.6295 9.44447 15.2906 9.44447 12.2221ZM28.8888 14.9999C28.8888 22.6705 22.6706 28.8887 15 28.8887C7.32942 28.8887 1.11119 22.6705 1.11119 14.9999C1.11119 7.32929 7.32942 1.11106 15 1.11106C22.6706 1.11106 28.8888 7.32929 28.8888 14.9999Z" stroke="#0DB1AD" stroke-width="2.16" stroke-miterlimit="10"/>
</svg>
