<svg width="21" height="20" viewBox="0 0 21 20" fill="none" xmlns="http://www.w3.org/2000/svg">
<path d="M9.63933 2.75409C9.98359 1.7213 10.9303 1.03278 12.0492 1.03278C13.5123 1.03278 14.6311 2.15163 14.6311 3.61474C14.6311 5.07786 13.5123 6.19671 12.0492 6.19671H1.03278M4.4754 16.5246C4.81966 17.5574 5.76638 18.2459 6.88523 18.2459C8.34835 18.2459 9.4672 17.127 9.4672 15.6639C9.4672 14.2008 8.34835 13.0819 6.88523 13.0819H1.03278M14.9754 13.0819C15.3197 14.1147 16.2664 14.8033 17.3852 14.8033C18.8483 14.8033 19.9672 13.6844 19.9672 12.2213C19.9672 10.7582 18.8483 9.63933 17.3852 9.63933H1.03278" stroke="#171A1F" stroke-width="2.05714" stroke-miterlimit="10" stroke-linecap="square"/>
</svg>
