<svg width="20" height="21" viewBox="0 0 20 21" fill="none" xmlns="http://www.w3.org/2000/svg">
<path d="M17.3852 11.3606H12.2213C12.2213 8.09015 11.3606 7.40162 11.3606 5.33605C11.3606 2.75409 12.9098 1.03278 14.8033 1.03278C16.6967 1.03278 18.2459 2.75409 18.2459 5.33605C18.2459 7.91802 17.3852 11.3606 17.3852 11.3606Z" stroke="#171A1F" stroke-width="2.05714" stroke-miterlimit="10" stroke-linecap="square"/>
<path d="M14.8033 18.2459C12.9959 18.2459 11.7049 16.6106 12.0492 14.8893L12.2213 13.9426H17.3852L17.5574 14.8893C17.9016 16.6106 16.6106 18.2459 14.8033 18.2459Z" stroke="#171A1F" stroke-width="2.05714" stroke-miterlimit="10" stroke-linecap="square"/>
<path d="M1.89343 13.0819H7.05736C7.05736 9.81146 7.91802 9.12293 7.91802 7.05736C7.91802 4.4754 6.36884 2.75409 4.4754 2.75409C2.58196 2.75409 1.03278 4.4754 1.03278 7.05736C1.03278 9.63933 1.89343 13.0819 1.89343 13.0819Z" stroke="#171A1F" stroke-width="2.05714" stroke-miterlimit="10" stroke-linecap="square"/>
<path d="M4.4754 19.9672C6.28277 19.9672 7.57376 18.3319 7.22949 16.6106L7.05736 15.6639H1.89343L1.7213 16.6106C1.37704 18.3319 2.66802 19.9672 4.4754 19.9672Z" stroke="#171A1F" stroke-width="2.05714" stroke-miterlimit="10" stroke-linecap="square"/>
</svg>
