<svg width="20" height="18" viewBox="0 0 20 18" fill="none" xmlns="http://www.w3.org/2000/svg">
<path d="M17.17 8.77021L9.7355 16.4959L2.30097 8.77021C1.8463 8.2915 1.5006 7.72006 1.28761 7.09514C1.07462 6.47021 0.999376 5.8066 1.06705 5.14985C1.13473 4.49311 1.34372 3.85878 1.67967 3.29043C2.01563 2.72207 2.47059 2.23314 3.01333 1.85721C3.55608 1.48127 4.17374 1.22723 4.82393 1.11253C5.47411 0.997832 6.14142 1.02518 6.78003 1.19271C7.41865 1.36024 8.01345 1.66397 8.5236 2.08307C9.03376 2.50216 9.44718 3.02668 9.7355 3.62063C10.0238 3.02668 10.4372 2.50216 10.9474 2.08307C11.4575 1.66397 12.0523 1.36024 12.691 1.19271C13.3296 1.02518 13.9969 0.997832 14.6471 1.11253C15.2973 1.22723 15.9149 1.48127 16.4577 1.85721C17.0004 2.23314 17.4554 2.72207 17.7913 3.29043C18.1273 3.85878 18.3363 4.49311 18.4039 5.14985C18.4716 5.8066 18.3964 6.47021 18.1834 7.09514C17.9704 7.72006 17.6247 8.2915 17.17 8.77021Z" stroke="#171A1F" stroke-width="2.05714" stroke-miterlimit="10" stroke-linecap="square"/>
</svg>
