<svg width="24" height="26" viewBox="0 0 24 26" fill="none" xmlns="http://www.w3.org/2000/svg">
<path d="M9.46899 24.0114C9.7805 24.3357 10.1543 24.5937 10.568 24.7699C10.9817 24.9462 11.4267 25.037 11.8764 25.037C12.326 25.037 12.771 24.9462 13.1847 24.7699C13.5984 24.5937 13.9722 24.3357 14.2837 24.0114M19.9009 12.1977V8.90759C19.8373 6.80696 18.9691 4.81106 17.4756 3.33249C15.9821 1.85393 13.9775 1.00574 11.8764 0.963276C9.76727 1.02386 7.76121 1.88875 6.26924 3.38072C4.77727 4.87269 3.91238 6.87875 3.8518 8.98784V12.1977C3.8518 15.8087 0.962954 16.4507 0.962954 18.4568C0.962954 20.3025 5.21597 21.7469 11.8764 21.7469C18.5368 21.7469 22.7898 20.3025 22.7898 18.4568C22.7898 16.4507 19.9009 15.8087 19.9009 12.1977Z" stroke="#565D6D" stroke-width="1.92" stroke-miterlimit="10" stroke-linecap="square"/>
</svg>
