<svg width="18" height="21" viewBox="0 0 18 21" fill="none" xmlns="http://www.w3.org/2000/svg">
<path d="M4.4761 2.75452H1.03294M4.4761 7.05848H1.03294M2.75452 11.3624H1.03294M13.9448 10.3295V3.61531C13.9448 2.93043 13.6727 2.27359 13.1884 1.7893C12.7042 1.30501 12.0473 1.03294 11.3624 1.03294C10.6775 1.03294 10.0207 1.30501 9.53642 1.7893C9.05213 2.27359 8.78006 2.93043 8.78006 3.61531V10.3295C7.79544 10.8979 7.02592 11.7754 6.59083 12.8258C6.15574 13.8762 6.07941 15.0408 6.37367 16.139C6.66793 17.2372 7.31634 18.2076 8.21833 18.8997C9.12032 19.5919 10.2255 19.967 11.3624 19.967C12.4994 19.967 13.6045 19.5919 14.5065 18.8997C15.4085 18.2076 16.0569 17.2372 16.3512 16.139C16.6454 15.0408 16.5691 13.8762 16.134 12.8258C15.6989 11.7754 14.9294 10.8979 13.9448 10.3295ZM11.3624 17.388C12.0473 17.388 12.7042 17.1159 13.1884 16.6316C13.6727 16.1473 13.9448 15.4905 13.9448 14.8056H8.78006C8.78006 15.4905 9.05213 16.1473 9.53642 16.6316C10.0207 17.1159 10.6775 17.388 11.3624 17.388Z" stroke="#171A1F" stroke-width="2.05714" stroke-miterlimit="10" stroke-linecap="square"/>
</svg>
