<svg width="15" height="15" viewBox="0 0 15 15" fill="none" xmlns="http://www.w3.org/2000/svg">
<path d="M14.6977 6.1365H7.53866V9.2045H11.5962C10.9462 11.25 9.34616 11.932 7.50616 11.932C6.79329 11.9329 6.0907 11.7619 5.45802 11.4334C4.82535 11.1049 4.28124 10.6286 3.87188 10.045C3.46253 9.46138 3.19999 8.78762 3.10655 8.0809C3.01312 7.37417 3.09154 6.65533 3.33516 5.98537C3.57879 5.31542 3.98043 4.71412 4.506 4.23249C5.03157 3.75086 5.66557 3.40311 6.3542 3.21876C7.04282 3.03441 7.76576 3.01889 8.46167 3.17352C9.15757 3.32815 9.80591 3.64837 10.3517 4.107L12.5812 1.9835C11.6834 1.15654 10.5973 0.561212 9.41721 0.249187C8.23715 -0.0628383 6.99876 -0.0821284 5.80955 0.192991C4.62034 0.468111 3.51625 1.02933 2.59312 1.82792C1.66999 2.62651 0.955729 3.63834 0.512332 4.77558C0.0689342 5.91282 -0.0901957 7.14109 0.0487558 8.35378C0.187707 9.56646 0.620541 10.7269 1.30968 11.7344C1.99882 12.7418 2.92345 13.5659 4.00329 14.135C5.08313 14.7041 6.28554 15.001 7.50616 15C11.6417 15 15.3797 12.2725 14.6977 6.1365Z" fill="white"/>
</svg>
