<svg width="26" height="26" viewBox="0 0 26 26" fill="none" xmlns="http://www.w3.org/2000/svg">
<path d="M8.03532 17.0124V25.0371H21.6773V18.6173M21.6773 18.6173C23.4501 18.6173 24.8872 17.1802 24.8872 15.4074C24.8872 13.6346 23.4501 12.1975 21.6773 12.1975C19.9046 12.1975 18.4675 13.6346 18.4675 15.4074C18.4675 17.1802 19.9046 18.6173 21.6773 18.6173ZM12.0477 1.7654H15.0971C15.5786 1.7654 15.9798 2.16663 15.8995 2.72836L13.8131 15.7284C13.6526 16.5309 13.0106 17.0926 12.2082 17.0926H4.58469C3.78222 17.0926 3.14024 16.5309 2.97975 15.7284L0.97357 2.72836C0.893323 2.16663 1.29456 1.7654 1.77604 1.7654H4.82543M4.82543 0.962927V3.37034M12.0477 0.962927V3.37034" stroke="#565D6D" stroke-width="1.92" stroke-miterlimit="10" stroke-linecap="square"/>
</svg>
