<svg width="30" height="30" viewBox="0 0 30 30" fill="none" xmlns="http://www.w3.org/2000/svg">
<path d="M20.7621 4.61895C20.7621 4.31269 20.8838 4.01898 21.1003 3.80243C21.3169 3.58587 21.6106 3.46421 21.9168 3.46422H28.8452C29.1515 3.46422 29.4452 3.58587 29.6618 3.80243C29.8783 4.01898 30 4.31269 30 4.61895C30 4.9252 29.8783 5.21891 29.6618 5.43547C29.4452 5.65202 29.1515 5.77368 28.8452 5.77368H21.9168C21.6106 5.77368 21.3169 5.65202 21.1003 5.43547C20.8838 5.21891 20.7621 4.9252 20.7621 4.61895ZM29.7921 12.5115C30.3197 15.6475 29.837 18.8699 28.4137 21.7136C26.9904 24.5572 24.7003 26.875 21.8738 28.3323C19.0474 29.7895 15.831 30.3108 12.689 29.8209C9.547 29.331 6.64199 27.8552 4.39341 25.6066C2.14483 23.358 0.669037 20.453 0.179109 17.311C-0.310818 14.169 0.210473 10.9526 1.66772 8.12616C3.12496 5.29973 5.44275 3.00956 8.28643 1.58629C11.1301 0.163028 14.3525 -0.319679 17.4884 0.207868C17.7882 0.260878 18.0549 0.4301 18.2305 0.678726C18.4061 0.927352 18.4765 1.23527 18.4263 1.5355C18.376 1.83572 18.2093 2.10397 17.9623 2.2819C17.7153 2.45982 17.4081 2.53302 17.1074 2.48558C15.286 2.17918 13.4197 2.27336 11.6384 2.76157C9.85709 3.24978 8.20357 4.12028 6.7929 5.31251C5.38224 6.50473 4.24831 7.99004 3.47004 9.66505C2.69177 11.3401 2.28785 13.1646 2.28639 15.0115C2.28365 18.1209 3.42647 21.1224 5.49654 23.4425C6.7844 21.5763 8.5953 20.1325 10.7015 19.2927C9.57013 18.4016 8.74456 17.1801 8.3396 15.7981C7.93464 14.416 7.97042 12.9421 8.44196 11.5813C8.9135 10.2206 9.79737 9.04054 10.9706 8.20539C12.1439 7.37024 13.5483 6.92145 14.9884 6.92145C16.4286 6.92145 17.833 7.37024 19.0063 8.20539C20.1795 9.04054 21.0634 10.2206 21.5349 11.5813C22.0065 12.9421 22.0423 14.416 21.6373 15.7981C21.2323 17.1801 20.4068 18.4016 19.2754 19.2927C21.3816 20.1325 23.1925 21.5763 24.4804 23.4425C26.5504 21.1224 27.6932 18.1209 27.6905 15.0115C27.6906 14.3016 27.6317 13.5928 27.5144 12.8926C27.4878 12.7424 27.4913 12.5884 27.5246 12.4395C27.5579 12.2907 27.6203 12.1499 27.7083 12.0253C27.7964 11.9007 27.9082 11.7948 28.0374 11.7136C28.1665 11.6325 28.3105 11.5778 28.461 11.5526C28.6114 11.5274 28.7654 11.5323 28.9139 11.567C29.0625 11.6017 29.2027 11.6654 29.3264 11.7546C29.4502 11.8437 29.5551 11.9565 29.635 12.0865C29.715 12.2164 29.7683 12.3609 29.7921 12.5115ZM14.9884 18.4757C15.902 18.4757 16.795 18.2048 17.5546 17.6973C18.3142 17.1898 18.9062 16.4684 19.2558 15.6244C19.6054 14.7804 19.6969 13.8517 19.5186 12.9557C19.3404 12.0597 18.9005 11.2367 18.2545 10.5907C17.6086 9.94476 16.7855 9.50485 15.8896 9.32663C14.9936 9.14841 14.0649 9.23988 13.2209 9.58947C12.3769 9.93907 11.6555 10.5311 11.1479 11.2907C10.6404 12.0503 10.3695 12.9433 10.3695 13.8568C10.3695 15.0818 10.8562 16.2567 11.7224 17.1229C12.5886 17.9891 13.7634 18.4757 14.9884 18.4757ZM14.9884 27.7136C17.808 27.7164 20.5475 26.7765 22.7713 25.0433C21.936 23.7368 20.7852 22.6617 19.425 21.9169C18.0649 21.1722 16.5391 20.7818 14.9884 20.7818C13.4378 20.7818 11.912 21.1722 10.5519 21.9169C9.1917 22.6617 8.0409 23.7368 7.20555 25.0433C9.42941 26.7765 12.1689 27.7164 14.9884 27.7136Z" fill="#0DB1AD"/>
</svg>
