<svg width="19" height="15" viewBox="0 0 19 15" fill="none" xmlns="http://www.w3.org/2000/svg">
<path d="M1.46348 7.5L0.731741 6.76826L5.99677e-07 7.5L0.731741 8.23174L1.46348 7.5ZM6.76829 14.2683L7.50003 15L8.96351 13.5365L8.23177 12.8048L6.76829 14.2683ZM8.23177 2.19519L8.96351 1.46345L7.50003 -3.01038e-05L6.76829 0.73171L8.23177 2.19519ZM18.7108 6.46516H1.46348V8.53484H18.7108V6.46516ZM8.23177 12.8048L2.19522 6.76826L0.731741 8.23174L6.76829 14.2683L8.23177 12.8048ZM2.19522 8.23174L8.23177 2.19519L6.76829 0.73171L0.731741 6.76826L2.19522 8.23174Z" fill="#171A1F"/>
</svg>
