<svg width="25" height="30" viewBox="0 0 25 30" fill="none" xmlns="http://www.w3.org/2000/svg">
<path d="M24.6676 6.0142L18.9858 0.332387C18.8802 0.226893 18.7548 0.143241 18.6169 0.086209C18.4789 0.0291771 18.3311 -0.000117029 18.1818 3.51362e-07H6.81818C6.21542 3.51362e-07 5.63734 0.239448 5.21112 0.665667C4.7849 1.09189 4.54545 1.66996 4.54545 2.27273V4.54546H2.27273C1.66996 4.54546 1.09189 4.7849 0.665666 5.21112C0.239447 5.63734 0 6.21542 0 6.81818V27.2727C0 27.8755 0.239447 28.4536 0.665666 28.8798C1.09189 29.306 1.66996 29.5455 2.27273 29.5455H18.1818C18.7846 29.5455 19.3627 29.306 19.7889 28.8798C20.2151 28.4536 20.4545 27.8755 20.4545 27.2727V25H22.7273C23.33 25 23.9081 24.7606 24.3343 24.3343C24.7606 23.9081 25 23.33 25 22.7273V6.81818C25.0001 6.66891 24.9708 6.52107 24.9138 6.38313C24.8568 6.24518 24.7731 6.11982 24.6676 6.0142ZM18.1818 27.2727H2.27273V6.81818H13.1662L18.1818 11.8338V23.8409C18.1818 23.8494 18.1818 23.8565 18.1818 23.8636C18.1818 23.8707 18.1818 23.8778 18.1818 23.8864V27.2727ZM22.7273 22.7273H20.4545V11.3636C20.4547 11.2144 20.4254 11.0665 20.3683 10.9286C20.3113 10.7906 20.2277 10.6653 20.1222 10.5597L14.4403 4.87784C14.3347 4.77235 14.2094 4.6887 14.0714 4.63166C13.9335 4.57463 13.7856 4.54534 13.6364 4.54546H6.81818V2.27273H17.7116L22.7273 7.28835V22.7273ZM14.7727 18.1818C14.7727 18.4832 14.653 18.7722 14.4399 18.9853C14.2268 19.1985 13.9377 19.3182 13.6364 19.3182H6.81818C6.5168 19.3182 6.22776 19.1985 6.01465 18.9853C5.80154 18.7722 5.68182 18.4832 5.68182 18.1818C5.68182 17.8804 5.80154 17.5914 6.01465 17.3783C6.22776 17.1652 6.5168 17.0455 6.81818 17.0455H13.6364C13.9377 17.0455 14.2268 17.1652 14.4399 17.3783C14.653 17.5914 14.7727 17.8804 14.7727 18.1818ZM14.7727 22.7273C14.7727 23.0287 14.653 23.3177 14.4399 23.5308C14.2268 23.7439 13.9377 23.8636 13.6364 23.8636H6.81818C6.5168 23.8636 6.22776 23.7439 6.01465 23.5308C5.80154 23.3177 5.68182 23.0287 5.68182 22.7273C5.68182 22.4259 5.80154 22.1369 6.01465 21.9237C6.22776 21.7106 6.5168 21.5909 6.81818 21.5909H13.6364C13.9377 21.5909 14.2268 21.7106 14.4399 21.9237C14.653 22.1369 14.7727 22.4259 14.7727 22.7273Z" fill="#0DB1B1"/>
</svg>
